<svg xmlns="http://www.w3.org/2000/svg" viewBox="0 0 512 512" width="512" height="512">
  <defs>
    <linearGradient id="bg" x1="0" y1="0" x2="0" y2="1">
      <stop offset="0" stop-color="#1b4f86"/>
      <stop offset="1" stop-color="#0e2c4a"/>
    </linearGradient>
  </defs>
  <rect width="512" height="512" rx="115" fill="url(#bg)"/>
  <!-- 書類（車庫証明） -->
  <rect x="150" y="78" width="212" height="246" rx="16" fill="#ffffff"/>
  <rect x="182" y="119" width="148" height="14" rx="7" fill="#15406b"/>
  <rect x="182" y="159" width="148" height="14" rx="7" fill="#15406b"/>
  <rect x="182" y="199" width="100" height="14" rx="7" fill="#15406b"/>
  <!-- チェック（オレンジ） -->
  <path d="M194 258 L222 286 L276 222" fill="none" stroke="#e8821a" stroke-width="22" stroke-linecap="round" stroke-linejoin="round"/>
  <!-- 車 -->
  <polygon points="174,388 196,356 316,356 338,388" fill="#ffffff"/>
  <rect x="120" y="384" width="272" height="58" rx="24" fill="#ffffff"/>
  <circle cx="188" cy="440" r="28" fill="#0e2c4a"/>
  <circle cx="188" cy="440" r="12" fill="#ffffff"/>
  <circle cx="324" cy="440" r="28" fill="#0e2c4a"/>
  <circle cx="324" cy="440" r="12" fill="#ffffff"/>
</svg>
